<?xml version="1.0" encoding="utf-8"?>
<!-- Generator: Adobe Illustrator 23.0.3, SVG Export Plug-In . SVG Version: 6.00 Build 0)  -->
<svg version="1.1" id="Layer_1" xmlns="http://www.w3.org/2000/svg" xmlns:xlink="http://www.w3.org/1999/xlink" x="0px" y="0px"
	 viewBox="0 0 249.69 138.72" style="enable-background:new 0 0 249.69 138.72;" xml:space="preserve">
<style type="text/css">
	.st0{fill:#FFFFFF;}
	.st0{stroke:#FFFFFF;}
#Layer_1{fill: #FFFFFF; stroke: #FFFFFF;}	
</style>
<g>
	<g>
		<path d="M158.39,73.35c-8.78,4.84-17.37,9.58-25.96,14.32c-0.08-0.09-0.17-0.17-0.25-0.26c0.49-0.62,0.96-1.26,1.46-1.87
			c4.65-5.74,9.34-11.44,13.92-17.23c1.02-1.29,2.2-2.02,3.74-2.42c4.22-1.1,8.43-2.28,13.02-3.54
			c-8.27-11.37-16.37-22.52-24.68-33.93c-9.45,15.55-18.71,30.77-28.17,46.34c-1.88-4.04-3.62-7.76-5.52-11.85
			c-8.59,9.66-17.02,19.14-25.44,28.62c-0.11-0.05-0.23-0.1-0.34-0.15c1.01-5.88,2.01-11.76,3.04-17.74
			c-4.17-3.46-8.3-6.89-12.57-10.42c-2.7,2.2-5.32,4.31-7.91,6.46C52.68,78,42.59,86.32,32.55,94.71c-1.38,1.15-2.75,1.77-4.58,1.63
			c-1.91-0.15-3.83-0.03-5.97-0.41c16.26-14.03,32.52-28.06,48.89-42.19c6.16,3.57,12.26,7.11,18.48,10.72
			c2.08-1.88,4.13-3.73,6.17-5.59c3.3-3,6.62-5.98,9.87-9.04c0.91-0.86,1.84-1.22,3.08-1.19c3.38,0.06,6.76,0.02,10.29,0.02
			c6.82-11.14,13.63-22.26,20.62-33.67c10.82,13.85,21.49,27.51,32.35,41.42c5.66-4.9,11.21-9.7,16.88-14.61
			C205.03,59,221.36,76.14,238,93.62c-2.23,0.44-4.13,0.82-6.23,1.24c-5.61-6.14-11.24-12.31-16.9-18.5
			c-2.6,1.14-5.05,2.21-7.91,3.46c0.61-2.91,1.15-5.48,1.74-8.27c-6.93-7.15-13.93-14.37-21.13-21.8
			c-6.12,6.52-12.15,12.95-18.24,19.44c1.78,7.05,3.54,14.03,5.31,21.01c-0.13,0.08-0.26,0.16-0.39,0.24
			C169.02,84.79,163.79,79.16,158.39,73.35z"/>
	</g>
	<g>
		<path d="M43.31,115.47l-1.25-1.78c-0.96,0-1.75-0.05-2.38-0.14l-0.02,2.61c0,0.55,0.02,1.17,0.05,1.85
			c0.03,0.68,0.11,1.16,0.22,1.44c0.06,0.17,0.16,0.3,0.3,0.37c0.14,0.07,0.46,0.17,0.95,0.3c0.16,0.04,0.24,0.09,0.24,0.17
			c0,0.16-0.05,0.24-0.15,0.24c-0.12,0-0.42-0.04-0.91-0.11c-0.62-0.06-1-0.09-1.14-0.09c-0.7,0-1.43,0.05-2.17,0.15
			c-0.05,0-0.11,0.01-0.18,0.02c-0.15,0-0.22-0.07-0.22-0.2c0-0.07,0.03-0.13,0.08-0.16c0.05-0.04,0.18-0.08,0.36-0.13
			c0.33-0.09,0.56-0.22,0.71-0.4c0.14-0.18,0.25-0.52,0.32-1.04c0.07-0.52,0.1-1.35,0.11-2.49v-4.8c0.01-1.17,0.01-2.03-0.02-2.58
			c-0.03-0.55-0.09-0.95-0.18-1.21c-0.09-0.26-0.24-0.43-0.43-0.52c-0.2-0.09-0.5-0.16-0.92-0.21l0.04-0.36
			c0.38,0.01,0.87,0.02,1.47,0.02c0.17,0,0.8-0.05,1.89-0.14c1.09-0.09,1.78-0.14,2.07-0.14c0.76,0,1.44,0.1,2.05,0.31
			c0.61,0.21,1.12,0.49,1.53,0.84c0.41,0.35,0.72,0.74,0.93,1.19c0.21,0.44,0.31,0.9,0.31,1.37c0,0.48-0.11,0.96-0.32,1.41
			c-0.22,0.46-0.55,0.87-0.99,1.24c-0.44,0.37-1.01,0.69-1.7,0.95l0.49,0.74c0.68,1.03,1.25,1.86,1.7,2.49
			c0.45,0.63,0.93,1.24,1.45,1.83c0.52,0.59,1.04,1.06,1.58,1.43c0.54,0.37,1.06,0.57,1.58,0.61c0.14,0.02,0.21,0.09,0.21,0.22
			c0,0.06-0.03,0.11-0.1,0.15c-0.07,0.03-0.22,0.05-0.47,0.05c-0.7,0-1.38-0.15-2.03-0.46c-0.65-0.31-1.27-0.72-1.86-1.24
			s-1.11-1.07-1.56-1.64S43.94,116.35,43.31,115.47z M39.75,112.92c0.48,0.12,1.07,0.17,1.76,0.17c0.35,0,0.71-0.03,1.1-0.08
			c0.39-0.05,0.78-0.16,1.19-0.34c0.41-0.17,0.76-0.47,1.06-0.88s0.44-0.96,0.44-1.66c0-0.49-0.13-1.01-0.39-1.54
			c-0.26-0.54-0.65-1-1.19-1.39c-0.54-0.39-1.19-0.58-1.95-0.58c-0.32,0-0.68,0.04-1.08,0.12c-0.4,0.08-0.64,0.22-0.7,0.4
			C39.84,107.5,39.75,109.43,39.75,112.92z" stroke="white"/>
		<path d="M58.14,115.47l-1.25-1.78c-0.96,0-1.75-0.05-2.38-0.14l-0.02,2.61c0,0.55,0.02,1.17,0.05,1.85
			c0.03,0.68,0.11,1.16,0.22,1.44c0.06,0.17,0.16,0.3,0.3,0.37c0.14,0.07,0.46,0.17,0.95,0.3c0.16,0.04,0.24,0.09,0.24,0.17
			c0,0.16-0.05,0.24-0.15,0.24c-0.12,0-0.42-0.04-0.91-0.11c-0.62-0.06-1-0.09-1.14-0.09c-0.7,0-1.43,0.05-2.17,0.15
			c-0.05,0-0.11,0.01-0.18,0.02c-0.15,0-0.22-0.07-0.22-0.2c0-0.07,0.03-0.13,0.08-0.16c0.05-0.04,0.18-0.08,0.36-0.13
			c0.33-0.09,0.56-0.22,0.71-0.4c0.14-0.18,0.25-0.52,0.32-1.04c0.07-0.52,0.1-1.35,0.11-2.49v-4.8c0.01-1.17,0.01-2.03-0.02-2.58
			c-0.03-0.55-0.09-0.95-0.18-1.21c-0.09-0.26-0.24-0.43-0.43-0.52c-0.2-0.09-0.5-0.16-0.92-0.21l0.04-0.36
			c0.38,0.01,0.87,0.02,1.47,0.02c0.17,0,0.8-0.05,1.89-0.14c1.09-0.09,1.78-0.14,2.07-0.14c0.76,0,1.44,0.1,2.05,0.31
			c0.61,0.21,1.12,0.49,1.53,0.84c0.41,0.35,0.72,0.74,0.93,1.19c0.21,0.44,0.31,0.9,0.31,1.37c0,0.48-0.11,0.96-0.32,1.41
			c-0.22,0.46-0.55,0.87-0.99,1.24c-0.44,0.37-1.01,0.69-1.7,0.95l0.49,0.74c0.68,1.03,1.25,1.86,1.7,2.49
			c0.45,0.63,0.93,1.24,1.45,1.83c0.52,0.59,1.04,1.06,1.58,1.43c0.54,0.37,1.06,0.57,1.58,0.61c0.14,0.02,0.21,0.09,0.21,0.22
			c0,0.06-0.03,0.11-0.1,0.15c-0.07,0.03-0.22,0.05-0.47,0.05c-0.7,0-1.38-0.15-2.03-0.46c-0.65-0.31-1.27-0.72-1.86-1.24
			s-1.11-1.07-1.56-1.64C59.31,117.08,58.77,116.35,58.14,115.47z M54.58,112.92c0.48,0.12,1.07,0.17,1.76,0.17
			c0.35,0,0.71-0.03,1.1-0.08c0.39-0.05,0.78-0.16,1.19-0.34c0.41-0.17,0.76-0.47,1.06-0.88s0.44-0.96,0.44-1.66
			c0-0.49-0.13-1.01-0.39-1.54c-0.26-0.54-0.65-1-1.19-1.39c-0.54-0.39-1.19-0.58-1.95-0.58c-0.32,0-0.68,0.04-1.08,0.12
			c-0.4,0.08-0.64,0.22-0.7,0.4C54.67,107.5,54.58,109.43,54.58,112.92z" stroke="white"/>
		<path d="M72.44,106.73v-0.38c0.91,0.01,1.51,0.01,1.79,0.02c0.28,0.01,0.52,0.01,0.71,0.02c1.22,0,2.02-0.01,2.4-0.04l-0.02,0.42
			c-0.5,0.04-0.87,0.1-1.12,0.18c-0.25,0.08-0.42,0.24-0.53,0.48c-0.07,0.16-0.11,0.56-0.14,1.19c-0.03,0.64-0.05,1.45-0.08,2.45
			c-0.03,1.12-0.05,2.14-0.07,3.05c-0.01,0.91-0.02,1.82-0.02,2.71c0,0.82,0.02,1.42,0.06,1.81c0.04,0.39,0.12,0.64,0.22,0.74
			c0.12,0.09,0.33,0.16,0.61,0.21c0.29,0.04,0.9,0.07,1.83,0.07c1.03,0,1.89-0.08,2.58-0.25c0.69-0.17,1.21-0.34,1.56-0.53
			c0.46-0.28,0.78-0.76,0.96-1.44l0.36,0.04c-0.04,0.3-0.14,0.74-0.29,1.34c-0.15,0.59-0.33,1.13-0.53,1.62
			c-0.62-0.07-1.12-0.11-1.49-0.11c-0.23-0.01-0.43-0.01-0.62-0.02c-0.19,0-0.41-0.01-0.67-0.01h-7.62l-0.02-0.34
			c0.42-0.09,0.73-0.18,0.93-0.28c0.19-0.1,0.34-0.28,0.44-0.53c0.1-0.25,0.16-0.62,0.19-1.12c0.03-0.5,0.04-1.22,0.04-2.16
			l0.02-4.78c0.01-1.08,0.01-1.9,0-2.45c-0.01-0.56-0.06-0.97-0.15-1.24c-0.09-0.27-0.23-0.45-0.41-0.53
			C73.15,106.79,72.85,106.74,72.44,106.73z" stroke="white"/>
		<path d="M91.59,114.66l-5.43,1.17c0.04,0.68,0.1,1.21,0.2,1.58c0.1,0.37,0.29,0.75,0.58,1.13c0.56,0.73,1.23,1.1,2.02,1.1
			c0.32,0,0.67-0.06,1.04-0.18c0.37-0.12,0.78-0.34,1.23-0.66l0.2,0.26c-1.26,0.9-2.38,1.36-3.35,1.36c-1.03,0-1.84-0.39-2.42-1.17
			c-0.58-0.78-0.87-1.68-0.87-2.69c0-1.03,0.22-1.89,0.66-2.58c0.44-0.68,0.94-1.18,1.49-1.49c0.55-0.31,0.97-0.47,1.25-0.47
			c0.32,0,0.66,0.05,1.01,0.16c0.35,0.11,0.69,0.31,1.03,0.6c0.34,0.3,0.62,0.7,0.84,1.22c0.07,0.11,0.13,0.18,0.18,0.22
			c0.06,0.04,0.16,0.05,0.32,0.05L91.59,114.66z M86.19,115.41l1.42-0.3c0.06-0.03,0.28-0.09,0.66-0.17
			c0.38-0.09,0.63-0.14,0.76-0.16c0.38-0.09,0.62-0.15,0.72-0.18c0.1-0.04,0.15-0.09,0.15-0.17c0-0.12-0.09-0.31-0.26-0.59
			c-0.17-0.28-0.42-0.53-0.74-0.77c-0.32-0.23-0.7-0.35-1.13-0.35c-0.54,0-0.93,0.29-1.16,0.86
			C86.38,114.14,86.24,114.75,86.19,115.41z" stroke="white"/>
		<path d="M96.06,118.89c-0.41-0.1-0.83-0.25-1.25-0.46c-0.42-0.2-0.81-0.53-1.15-0.98c-0.34-0.45-0.51-1.06-0.51-1.83
			c0-0.69,0.19-1.33,0.56-1.92c0.37-0.58,0.86-1.04,1.45-1.37c0.6-0.33,1.21-0.49,1.83-0.49c0.38,0,0.74,0.05,1.07,0.16
			c0.33,0.11,0.64,0.27,0.92,0.48c0.52-0.1,1.07-0.15,1.65-0.15c0.38,0,0.64,0.01,0.78,0.04c-0.02,0.39-0.12,0.78-0.29,1.17
			c-0.49-0.2-1.01-0.3-1.55-0.3c0.09,0.13,0.19,0.31,0.28,0.53c0.09,0.22,0.17,0.46,0.23,0.71c0.06,0.25,0.09,0.5,0.09,0.74
			c0,0.67-0.15,1.23-0.45,1.69c-0.3,0.46-0.66,0.83-1.1,1.11c-0.44,0.28-1,0.58-1.68,0.91c-1.27,0.56-1.91,0.97-1.91,1.23
			c0,0.44,0.53,0.66,1.6,0.66c0.88,0,1.57,0.01,2.06,0.04c0.49,0.03,0.93,0.11,1.3,0.23c0.38,0.12,0.67,0.33,0.88,0.62
			c0.21,0.29,0.31,0.7,0.31,1.22c0,0.7-0.27,1.32-0.82,1.86c-0.55,0.54-1.24,0.96-2.09,1.25c-0.85,0.29-1.7,0.44-2.56,0.44
			c-1.1,0-1.86-0.24-2.29-0.72c-0.43-0.48-0.64-0.99-0.64-1.53c0-0.61,0.19-1.1,0.56-1.47c0.37-0.37,0.84-0.72,1.42-1.06
			c-0.77-0.42-1.14-0.98-1.13-1.67c0.34-0.26,0.91-0.54,1.7-0.84L96.06,118.89z M95.38,121.97c-0.45,0.14-0.85,0.37-1.22,0.69
			c-0.36,0.32-0.54,0.69-0.54,1.1c0,0.48,0.28,0.91,0.84,1.29c0.56,0.38,1.28,0.57,2.16,0.57c0.5,0,1.04-0.07,1.63-0.22
			c0.59-0.15,1.09-0.38,1.5-0.71c0.42-0.32,0.62-0.72,0.62-1.19c0-0.32-0.11-0.63-0.34-0.92c-0.23-0.28-0.58-0.44-1.04-0.48
			c-0.1-0.02-0.47-0.02-1.1-0.01c-0.63,0.01-1.01,0.01-1.13,0.01C96.12,122.1,95.66,122.06,95.38,121.97z M97.23,118.31
			c0.52-0.28,0.93-0.58,1.22-0.91c0.29-0.33,0.44-0.88,0.44-1.63c0-0.43-0.06-0.84-0.18-1.23c-0.12-0.39-0.29-0.74-0.51-1.05
			c-0.22-0.3-0.48-0.55-0.8-0.73c-0.32-0.18-0.67-0.28-1.06-0.28c-0.59,0-1.09,0.23-1.49,0.68c-0.4,0.45-0.6,1.03-0.6,1.72
			c0,0.98,0.29,1.71,0.88,2.2C95.71,117.58,96.41,117.98,97.23,118.31z" stroke="white"/>
		<path d="M103.98,113.9l-1.34,0.6c-0.06-0.23-0.09-0.4-0.09-0.51c0-0.37,0.23-0.71,0.68-1.03c0.45-0.31,0.96-0.57,1.53-0.76
			c0.57-0.2,0.96-0.29,1.19-0.29c0.2,0,0.44,0.09,0.73,0.26c0.29,0.17,0.52,0.35,0.69,0.52c0.15,0.14,0.27,0.29,0.35,0.43
			c0.08,0.14,0.16,0.36,0.22,0.67c0.07,0.3,0.1,0.69,0.1,1.16c0,0.14-0.02,0.62-0.05,1.45l-0.04,0.81c-0.03,0.39-0.04,0.7-0.04,0.93
			c0,0.3,0.04,0.62,0.12,0.96c0.07,0.35,0.24,0.52,0.49,0.52c0.28,0,0.66-0.11,1.13-0.32v0.45l-1.6,0.64
			c-0.32,0.11-0.5,0.16-0.54,0.16c-0.17,0-0.33-0.11-0.49-0.33c-0.16-0.22-0.3-0.48-0.4-0.79c-1.34,0.75-2.37,1.12-3.08,1.12
			c-0.44,0-0.78-0.13-1-0.39c-0.23-0.26-0.34-0.64-0.34-1.16c0-0.49,0.06-0.86,0.18-1.1c0.12-0.24,0.31-0.43,0.58-0.56
			c0.54-0.28,1.12-0.48,1.73-0.61c0.61-0.13,1.24-0.25,1.91-0.34l0.05-1.33v-0.36c0-0.62-0.18-1.1-0.53-1.46
			c-0.35-0.36-0.76-0.54-1.23-0.54c-0.22,0-0.45,0.06-0.68,0.19c-0.23,0.13-0.34,0.31-0.34,0.54
			C103.87,113.55,103.91,113.71,103.98,113.9z M106.55,119.04c-0.02-0.24,0-0.92,0.07-2.04c-0.95-0.07-1.72,0.05-2.29,0.35
			c-0.58,0.3-0.87,0.67-0.87,1.12c0,0.33,0.09,0.63,0.26,0.92c0.18,0.29,0.42,0.43,0.73,0.43
			C104.8,119.82,105.5,119.56,106.55,119.04z" stroke="white"/>
		<path d="M109.94,120.35v-0.34c0.54-0.09,0.93-0.26,1.15-0.49c0.22-0.23,0.37-0.59,0.42-1.06c0.04-0.25,0.08-0.81,0.12-1.7
			c0.04-0.89,0.08-1.9,0.12-3.04c0.04-1.14,0.05-2.17,0.05-3.08c0-1.91-0.1-3-0.3-3.26c-0.12-0.18-0.37-0.27-0.74-0.27
			c-0.09,0-0.16,0-0.21,0.01c-0.05,0.01-0.1,0.01-0.14,0.02c-0.04,0.01-0.09,0.01-0.14,0.02v-0.34c1.39-0.58,2.36-1.07,2.93-1.47
			h0.33c-0.22,0.85-0.37,2.4-0.42,4.64l-0.09,5.22c0,2.44,0.05,3.83,0.16,4.15c0.07,0.19,0.28,0.33,0.65,0.43
			c0.37,0.1,0.7,0.16,0.99,0.19v0.41c-1.42-0.1-2.37-0.15-2.87-0.15C111.3,120.24,110.63,120.28,109.94,120.35z"/>
		<path d="M120.88,106.71v-0.47c0.82,0.04,1.33,0.07,1.53,0.09c0.74,0.03,1.23,0.04,1.49,0.04c0.09,0,0.46-0.01,1.13-0.04
			c0.67-0.03,1.29-0.06,1.88-0.09v0.51c-0.64,0-1.07,0.03-1.3,0.1c-0.23,0.07-0.41,0.21-0.52,0.41c-0.24,0.46-0.36,2.2-0.36,5.23
			c0,2.09,0,3.41,0.01,3.96c0,0.55,0.02,1.15,0.04,1.78c0.01,0.51,0.05,0.87,0.12,1.08c0.07,0.21,0.24,0.37,0.53,0.47
			s0.76,0.16,1.4,0.17l-0.04,0.41c-0.1,0-0.3-0.01-0.6-0.02c-0.3-0.01-0.61-0.02-0.93-0.03c-0.32-0.01-0.57-0.01-0.74-0.02
			c-0.17,0-0.37-0.01-0.6-0.01c-0.32,0-0.58,0-0.8,0.01c-0.21,0-0.5,0.01-0.85,0.02c-0.35,0.01-0.67,0.02-0.96,0.03
			c-0.29,0.01-0.46,0.02-0.52,0.02l-0.02-0.41c0.78-0.04,1.31-0.13,1.58-0.27c0.28-0.14,0.46-0.36,0.56-0.66
			c0.14-0.39,0.24-1.13,0.28-2.22c0.04-1.09,0.06-2.24,0.06-3.44c0-1.09-0.04-2.66-0.11-4.71c-0.02-0.56-0.08-0.97-0.17-1.21
			c-0.09-0.24-0.29-0.42-0.61-0.54C122.04,106.77,121.55,106.71,120.88,106.71z" stroke="white"/>
		<path d="M127.8,120.16l-0.02-0.31c0.39-0.07,0.68-0.15,0.86-0.23s0.3-0.17,0.36-0.27s0.1-0.24,0.12-0.41
			c0.06-0.4,0.1-0.89,0.12-1.46c0.02-0.58,0.03-1.16,0.03-1.76c0-0.82-0.03-1.39-0.08-1.69c-0.05-0.3-0.17-0.49-0.35-0.57
			c-0.18-0.08-0.51-0.15-0.99-0.2c0-0.1-0.01-0.17-0.02-0.21c0.31-0.08,0.73-0.23,1.25-0.46c0.52-0.23,0.79-0.36,0.82-0.39
			c0.28-0.15,0.44-0.22,0.49-0.22c0.11,0,0.18,0.11,0.21,0.32s0.04,0.56,0.04,1.04c0.79-0.45,1.45-0.77,1.96-0.96
			c0.51-0.19,1-0.29,1.47-0.29c0.7,0,1.21,0.15,1.53,0.46c0.32,0.31,0.52,0.68,0.6,1.12c0.08,0.44,0.11,1.02,0.11,1.73v2.58
			c0,1.02,0.05,1.58,0.14,1.67c0.05,0.05,0.23,0.11,0.55,0.18c0.32,0.07,0.5,0.12,0.55,0.14l0.02,0.34
			c-0.54-0.09-1.17-0.13-1.89-0.13c-0.61,0-1.33,0.04-2.18,0.13v-0.31c0.66-0.13,1.07-0.34,1.23-0.62c0.11-0.24,0.18-0.74,0.22-1.51
			c0.04-0.77,0.06-1.37,0.06-1.8c0-0.64-0.03-1.16-0.08-1.57c-0.05-0.41-0.2-0.76-0.45-1.05c-0.25-0.29-0.63-0.43-1.15-0.43
			c-0.23,0-0.58,0.05-1.05,0.14c-0.47,0.09-1.02,0.31-1.66,0.64l-0.07,2.89c-0.01,1.23,0,2.04,0.04,2.44
			c0.01,0.17,0.05,0.3,0.1,0.39c0.05,0.09,0.18,0.16,0.36,0.23c0.19,0.07,0.51,0.13,0.96,0.18l-0.02,0.34
			c-0.16-0.01-0.39-0.03-0.69-0.05c-0.3-0.02-0.68-0.04-1.14-0.05H127.8z" stroke="white"/>
		<path d="M141.35,120.82h-0.32c-0.2-0.82-0.5-1.81-0.91-2.95c-0.41-1.14-0.83-2.21-1.25-3.21c-0.42-0.99-0.68-1.53-0.76-1.6
			c-0.09-0.07-0.21-0.15-0.37-0.23c-0.16-0.08-0.3-0.15-0.41-0.21v-0.26c0.24,0.01,0.62,0.02,1.15,0.02c0.8,0,1.72-0.03,2.78-0.09
			l-0.04,0.37c-0.51,0.06-0.84,0.12-0.97,0.17c-0.13,0.06-0.2,0.15-0.2,0.27c0,0.34,0.22,1.17,0.65,2.48
			c0.44,1.31,0.78,2.25,1.03,2.82c0.48-0.77,0.93-1.68,1.35-2.72c0.42-1.04,0.63-1.77,0.63-2.2c0-0.33-0.11-0.55-0.32-0.65
			c-0.21-0.1-0.49-0.16-0.85-0.17l0.04-0.35l0.76-0.02c0.39,0.04,0.73,0.07,1.02,0.07c0.46,0,0.87-0.04,1.25-0.13v0.33
			c-0.33,0.14-0.62,0.38-0.85,0.74c-0.24,0.35-0.4,0.67-0.51,0.96c-0.02,0.04-0.08,0.18-0.18,0.42c-0.1,0.24-0.17,0.4-0.22,0.47
			l-1.95,4.31L141.35,120.82z" stroke="white"/>
		<path d="M153.04,114.66l-5.43,1.17c0.04,0.68,0.1,1.21,0.2,1.58c0.1,0.37,0.29,0.75,0.58,1.13c0.56,0.73,1.23,1.1,2.02,1.1
			c0.32,0,0.67-0.06,1.04-0.18c0.37-0.12,0.78-0.34,1.23-0.66l0.2,0.26c-1.26,0.9-2.38,1.36-3.35,1.36c-1.03,0-1.84-0.39-2.42-1.17
			c-0.58-0.78-0.87-1.68-0.87-2.69c0-1.03,0.22-1.89,0.66-2.58c0.44-0.68,0.94-1.18,1.49-1.49c0.55-0.31,0.97-0.47,1.25-0.47
			c0.32,0,0.66,0.05,1.01,0.16c0.35,0.11,0.69,0.31,1.03,0.6c0.34,0.3,0.62,0.7,0.84,1.22c0.07,0.11,0.13,0.18,0.18,0.22
			c0.06,0.04,0.16,0.05,0.32,0.05L153.04,114.66z M147.63,115.41l1.42-0.3c0.06-0.03,0.28-0.09,0.66-0.17
			c0.38-0.09,0.63-0.14,0.76-0.16c0.38-0.09,0.62-0.15,0.72-0.18c0.1-0.04,0.15-0.09,0.15-0.17c0-0.12-0.09-0.31-0.26-0.59
			c-0.17-0.28-0.42-0.53-0.74-0.77c-0.32-0.23-0.7-0.35-1.13-0.35c-0.54,0-0.93,0.29-1.16,0.86
			C147.82,114.14,147.68,114.75,147.63,115.41z" stroke="white"/>
		<path d="M154.08,117.87l0.38,0.02c0,0.14,0.12,0.36,0.35,0.67c0.23,0.31,0.55,0.59,0.95,0.84c0.4,0.25,0.83,0.37,1.3,0.37
			c0.34,0,0.68-0.07,1.02-0.22c0.34-0.14,0.51-0.46,0.51-0.94c0-0.51-0.17-0.92-0.52-1.23c-0.36-0.3-0.76-0.57-1.21-0.79l-0.82-0.38
			c-0.48-0.25-0.86-0.51-1.14-0.78c-0.28-0.27-0.42-0.62-0.42-1.04c0-0.33,0.12-0.68,0.36-1.05c0.24-0.37,0.59-0.67,1.04-0.91
			c0.45-0.24,0.97-0.36,1.54-0.36c0.35,0,0.93,0.05,1.74,0.16l0.36,1.85h-0.38c-0.07-0.25-0.22-0.49-0.45-0.72
			c-0.24-0.23-0.51-0.42-0.83-0.58c-0.32-0.16-0.59-0.24-0.81-0.24c-0.38,0-0.7,0.12-0.94,0.36c-0.24,0.24-0.36,0.54-0.36,0.91
			c0,0.3,0.09,0.53,0.26,0.71c0.17,0.18,0.51,0.39,0.99,0.63l0.66,0.31c0.6,0.28,1.12,0.61,1.54,0.99c0.43,0.38,0.64,0.91,0.64,1.58
			c0,0.25-0.05,0.52-0.16,0.81c-0.1,0.29-0.26,0.49-0.47,0.61c-0.6,0.38-1.1,0.63-1.49,0.74c-0.39,0.11-0.79,0.17-1.2,0.17
			c-0.14,0-0.35-0.02-0.62-0.05c-0.27-0.04-0.46-0.07-0.57-0.09c-0.11-0.02-0.3-0.07-0.57-0.15c-0.27-0.08-0.44-0.13-0.52-0.15
			c0.06-0.29,0.09-0.5,0.09-0.62c0-0.18-0.03-0.43-0.09-0.74C154.2,118.25,154.14,118.02,154.08,117.87z" stroke="white"/>
		<path d="M162.24,117.19l0.05-4.22c-0.33-0.04-0.72-0.07-1.16-0.07c0.01-0.06,0.02-0.15,0.02-0.27c0.63-0.38,1.12-0.75,1.48-1.1
			c0.35-0.35,0.77-0.84,1.26-1.48l-0.11,1.95c0.62,0.06,1.3,0.09,2.04,0.09c0.35,0,0.74-0.01,1.16-0.02l-0.02,0.67
			c-0.38,0.04-0.76,0.07-1.16,0.07c-0.04,0-0.18-0.01-0.42-0.02c-0.25-0.01-0.63-0.03-1.15-0.05c-0.14,0-0.24,0.01-0.31,0.04
			c-0.07,0.03-0.12,0.07-0.14,0.15c-0.03,0.07-0.04,0.21-0.05,0.41c-0.01,0.2-0.02,0.42-0.03,0.64l-0.05,3.39
			c-0.01,0.65,0.06,1.19,0.22,1.61c0.16,0.42,0.55,0.64,1.18,0.64c0.24,0,0.53-0.05,0.89-0.16c0.35-0.11,0.75-0.27,1.21-0.48
			c0.01,0.06,0.02,0.1,0.03,0.13c0,0.03,0.01,0.06,0.02,0.1c-0.25,0.28-0.72,0.55-1.4,0.82c-0.68,0.27-1.29,0.4-1.83,0.4
			c-0.47,0-0.87-0.16-1.21-0.48c-0.34-0.32-0.5-0.88-0.5-1.67V117.19z" stroke="white"/>
		<path d="M167.88,120.35l0.04-0.34c0.62-0.06,0.96-0.17,1.04-0.33c0.04-0.07,0.07-0.32,0.1-0.78c0.03-0.45,0.05-0.99,0.07-1.62
			c0.02-0.63,0.03-0.98,0.03-1.06c0-1.03-0.02-1.69-0.05-1.98c-0.03-0.29-0.1-0.49-0.19-0.6c-0.03-0.04-0.21-0.07-0.54-0.11
			c-0.33-0.04-0.5-0.08-0.5-0.14c0-0.12,0.07-0.19,0.2-0.22c0.86-0.27,1.7-0.74,2.53-1.42c0.05,0,0.12,0.01,0.21,0.04
			c-0.07,0.3-0.13,0.73-0.18,1.3s-0.09,1.17-0.12,1.8c-0.03,0.63-0.05,1.19-0.05,1.67c0,0.36,0.01,0.88,0.04,1.56
			c0.02,0.68,0.07,1.13,0.14,1.37c0.06,0.13,0.13,0.21,0.22,0.25c0.09,0.04,0.26,0.07,0.52,0.09c0.25,0.01,0.51,0.03,0.76,0.07
			l0.13,0.31L167.88,120.35z M169.52,107.37c0-0.25,0.08-0.45,0.25-0.61s0.37-0.24,0.6-0.24s0.43,0.08,0.59,0.25
			c0.16,0.17,0.24,0.37,0.24,0.6s-0.08,0.43-0.23,0.6c-0.16,0.17-0.35,0.25-0.59,0.25c-0.23,0-0.43-0.08-0.6-0.25
			C169.6,107.8,169.52,107.6,169.52,107.37z" stroke="white"/>
		<path d="M176.21,118.89c-0.41-0.1-0.83-0.25-1.25-0.46c-0.42-0.2-0.81-0.53-1.15-0.98c-0.34-0.45-0.51-1.06-0.51-1.83
			c0-0.69,0.19-1.33,0.56-1.92c0.37-0.58,0.86-1.04,1.45-1.37c0.6-0.33,1.21-0.49,1.83-0.49c0.38,0,0.74,0.05,1.07,0.16
			c0.33,0.11,0.64,0.27,0.92,0.48c0.52-0.1,1.07-0.15,1.65-0.15c0.38,0,0.64,0.01,0.78,0.04c-0.02,0.39-0.12,0.78-0.29,1.17
			c-0.49-0.2-1.01-0.3-1.55-0.3c0.09,0.13,0.19,0.31,0.28,0.53c0.09,0.22,0.17,0.46,0.23,0.71c0.06,0.25,0.09,0.5,0.09,0.74
			c0,0.67-0.15,1.23-0.45,1.69c-0.3,0.46-0.66,0.83-1.1,1.11c-0.44,0.28-1,0.58-1.68,0.91c-1.27,0.56-1.91,0.97-1.91,1.23
			c0,0.44,0.53,0.66,1.6,0.66c0.88,0,1.57,0.01,2.06,0.04c0.49,0.03,0.93,0.11,1.3,0.23c0.38,0.12,0.67,0.33,0.88,0.62
			c0.21,0.29,0.31,0.7,0.31,1.22c0,0.7-0.27,1.32-0.82,1.86c-0.55,0.54-1.24,0.96-2.09,1.25c-0.85,0.29-1.7,0.44-2.56,0.44
			c-1.1,0-1.86-0.24-2.29-0.72c-0.43-0.48-0.64-0.99-0.64-1.53c0-0.61,0.19-1.1,0.56-1.47c0.37-0.37,0.84-0.72,1.42-1.06
			c-0.77-0.42-1.14-0.98-1.13-1.67c0.34-0.26,0.91-0.54,1.7-0.84L176.21,118.89z M175.53,121.97c-0.45,0.14-0.85,0.37-1.22,0.69
			c-0.36,0.32-0.54,0.69-0.54,1.1c0,0.48,0.28,0.91,0.84,1.29c0.56,0.38,1.28,0.57,2.16,0.57c0.5,0,1.04-0.07,1.63-0.22
			c0.59-0.15,1.09-0.38,1.5-0.71c0.42-0.32,0.62-0.72,0.62-1.19c0-0.32-0.11-0.63-0.34-0.92c-0.23-0.28-0.58-0.44-1.04-0.48
			c-0.1-0.02-0.47-0.02-1.1-0.01c-0.63,0.01-1.01,0.01-1.13,0.01C176.27,122.1,175.81,122.06,175.53,121.97z M177.38,118.31
			c0.52-0.28,0.93-0.58,1.22-0.91c0.29-0.33,0.44-0.88,0.44-1.63c0-0.43-0.06-0.84-0.18-1.23c-0.12-0.39-0.29-0.74-0.51-1.05
			c-0.22-0.3-0.48-0.55-0.8-0.73c-0.32-0.18-0.67-0.28-1.06-0.28c-0.59,0-1.09,0.23-1.49,0.68c-0.4,0.45-0.6,1.03-0.6,1.72
			c0,0.98,0.29,1.71,0.88,2.2C175.86,117.58,176.56,117.98,177.38,118.31z" stroke="white"/>
		<path d="M184.13,113.9l-1.34,0.6c-0.06-0.23-0.09-0.4-0.09-0.51c0-0.37,0.23-0.71,0.68-1.03c0.45-0.31,0.96-0.57,1.53-0.76
			c0.57-0.2,0.96-0.29,1.19-0.29c0.2,0,0.44,0.09,0.73,0.26c0.29,0.17,0.52,0.35,0.69,0.52c0.15,0.14,0.27,0.29,0.35,0.43
			c0.08,0.14,0.16,0.36,0.22,0.67c0.07,0.3,0.1,0.69,0.1,1.16c0,0.14-0.02,0.62-0.05,1.45l-0.04,0.81c-0.03,0.39-0.04,0.7-0.04,0.93
			c0,0.3,0.04,0.62,0.12,0.96c0.07,0.35,0.24,0.52,0.49,0.52c0.28,0,0.66-0.11,1.13-0.32v0.45l-1.6,0.64
			c-0.32,0.11-0.5,0.16-0.54,0.16c-0.17,0-0.33-0.11-0.49-0.33c-0.16-0.22-0.3-0.48-0.4-0.79c-1.34,0.75-2.37,1.12-3.08,1.12
			c-0.44,0-0.78-0.13-1-0.39c-0.23-0.26-0.34-0.64-0.34-1.16c0-0.49,0.06-0.86,0.18-1.1c0.12-0.24,0.31-0.43,0.58-0.56
			c0.54-0.28,1.12-0.48,1.73-0.61c0.61-0.13,1.24-0.25,1.91-0.34l0.05-1.33v-0.36c0-0.62-0.18-1.1-0.53-1.46
			c-0.35-0.36-0.76-0.54-1.23-0.54c-0.22,0-0.45,0.06-0.68,0.19c-0.23,0.13-0.34,0.31-0.34,0.54
			C184.02,113.55,184.06,113.71,184.13,113.9z M186.7,119.04c-0.02-0.24,0-0.92,0.07-2.04c-0.95-0.07-1.72,0.05-2.29,0.35
			c-0.58,0.3-0.87,0.67-0.87,1.12c0,0.33,0.09,0.63,0.26,0.92c0.18,0.29,0.42,0.43,0.73,0.43
			C184.95,119.82,185.65,119.56,186.7,119.04z" stroke="white"/>
		<path d="M191.37,117.19l0.05-4.22c-0.33-0.04-0.72-0.07-1.16-0.07c0.01-0.06,0.02-0.15,0.02-0.27c0.63-0.38,1.12-0.75,1.48-1.1
			c0.35-0.35,0.77-0.84,1.26-1.48l-0.11,1.95c0.62,0.06,1.3,0.09,2.04,0.09c0.35,0,0.74-0.01,1.16-0.02l-0.02,0.67
			c-0.38,0.04-0.76,0.07-1.16,0.07c-0.04,0-0.18-0.01-0.42-0.02c-0.25-0.01-0.63-0.03-1.15-0.05c-0.14,0-0.24,0.01-0.31,0.04
			c-0.07,0.03-0.12,0.07-0.14,0.15c-0.03,0.07-0.04,0.21-0.05,0.41c-0.01,0.2-0.02,0.42-0.03,0.64l-0.05,3.39
			c-0.01,0.65,0.06,1.19,0.22,1.61c0.16,0.42,0.55,0.64,1.18,0.64c0.24,0,0.53-0.05,0.89-0.16c0.35-0.11,0.75-0.27,1.21-0.48
			c0.01,0.06,0.02,0.1,0.03,0.13c0,0.03,0.01,0.06,0.02,0.1c-0.25,0.28-0.72,0.55-1.4,0.82c-0.68,0.27-1.29,0.4-1.83,0.4
			c-0.47,0-0.87-0.16-1.21-0.48c-0.34-0.32-0.5-0.88-0.5-1.67V117.19z" stroke="white"/>
		<path d="M197,120.35l0.04-0.34c0.62-0.06,0.96-0.17,1.04-0.33c0.04-0.07,0.07-0.32,0.1-0.78c0.03-0.45,0.05-0.99,0.07-1.62
			c0.02-0.63,0.03-0.98,0.03-1.06c0-1.03-0.02-1.69-0.05-1.98c-0.03-0.29-0.1-0.49-0.19-0.6c-0.03-0.04-0.21-0.07-0.54-0.11
			c-0.33-0.04-0.5-0.08-0.5-0.14c0-0.12,0.07-0.19,0.2-0.22c0.86-0.27,1.7-0.74,2.53-1.42c0.05,0,0.12,0.01,0.21,0.04
			c-0.07,0.3-0.13,0.73-0.18,1.3s-0.09,1.17-0.12,1.8c-0.03,0.63-0.05,1.19-0.05,1.67c0,0.36,0.01,0.88,0.04,1.56
			c0.02,0.68,0.07,1.13,0.14,1.37c0.06,0.13,0.13,0.21,0.22,0.25s0.26,0.07,0.52,0.09c0.25,0.01,0.51,0.03,0.76,0.07l0.13,0.31
			L197,120.35z M198.64,107.37c0-0.25,0.08-0.45,0.25-0.61s0.37-0.24,0.6-0.24s0.43,0.08,0.59,0.25c0.16,0.17,0.24,0.37,0.24,0.6
			s-0.08,0.43-0.23,0.6c-0.16,0.17-0.35,0.25-0.59,0.25c-0.23,0-0.43-0.08-0.6-0.25C198.73,107.8,198.64,107.6,198.64,107.37z" />
		<path d="M202.48,116.24c0-0.64,0.12-1.21,0.35-1.73c0.23-0.52,0.56-0.96,0.97-1.34c0.41-0.38,0.89-0.67,1.44-0.87
			c0.55-0.2,1.14-0.3,1.77-0.3c0.57,0,1.11,0.11,1.62,0.32c0.51,0.21,0.96,0.5,1.34,0.87c0.38,0.37,0.69,0.8,0.91,1.31
			c0.22,0.5,0.33,1.04,0.33,1.62c0,0.75-0.18,1.46-0.54,2.12c-0.36,0.66-0.86,1.19-1.52,1.59c-0.65,0.4-1.41,0.6-2.26,0.6
			c-0.64,0-1.31-0.14-1.99-0.42c-0.68-0.28-1.26-0.74-1.73-1.36C202.71,118,202.48,117.21,202.48,116.24z M203.9,115.64
			c0,0.67,0.13,1.34,0.4,2.01c0.27,0.67,0.64,1.21,1.12,1.64c0.48,0.43,1.01,0.64,1.59,0.64c0.51,0,0.97-0.14,1.38-0.42
			c0.41-0.28,0.74-0.67,0.99-1.19c0.25-0.51,0.37-1.1,0.37-1.75c0-0.66-0.14-1.3-0.43-1.93c-0.29-0.63-0.68-1.14-1.18-1.53
			c-0.5-0.39-1.06-0.59-1.67-0.59c-0.49,0-0.93,0.13-1.32,0.4s-0.7,0.64-0.92,1.12C204.01,114.52,203.9,115.05,203.9,115.64z" stroke="white"/>
		<path d="M212.46,120.16l-0.02-0.31c0.39-0.07,0.68-0.15,0.86-0.23s0.3-0.17,0.36-0.27c0.06-0.1,0.1-0.24,0.12-0.41
			c0.06-0.4,0.1-0.89,0.12-1.46c0.02-0.58,0.03-1.16,0.03-1.76c0-0.82-0.03-1.39-0.08-1.69c-0.05-0.3-0.17-0.49-0.35-0.57
			c-0.18-0.08-0.51-0.15-0.99-0.2c0-0.1-0.01-0.17-0.02-0.21c0.31-0.08,0.73-0.23,1.25-0.46c0.52-0.23,0.79-0.36,0.82-0.39
			c0.28-0.15,0.44-0.22,0.49-0.22c0.11,0,0.18,0.11,0.21,0.32s0.04,0.56,0.04,1.04c0.79-0.45,1.45-0.77,1.96-0.96
			c0.51-0.19,1-0.29,1.47-0.29c0.7,0,1.21,0.15,1.53,0.46c0.32,0.31,0.52,0.68,0.6,1.12c0.08,0.44,0.11,1.02,0.11,1.73v2.58
			c0,1.02,0.05,1.58,0.14,1.67c0.05,0.05,0.23,0.11,0.55,0.18c0.32,0.07,0.5,0.12,0.55,0.14l0.02,0.34
			c-0.54-0.09-1.17-0.13-1.89-0.13c-0.61,0-1.33,0.04-2.18,0.13v-0.31c0.66-0.13,1.07-0.34,1.23-0.62c0.11-0.24,0.18-0.74,0.22-1.51
			c0.04-0.77,0.06-1.37,0.06-1.8c0-0.64-0.03-1.16-0.08-1.57c-0.05-0.41-0.2-0.76-0.45-1.05s-0.63-0.43-1.15-0.43
			c-0.23,0-0.58,0.05-1.05,0.14c-0.47,0.09-1.02,0.31-1.66,0.64l-0.07,2.89c-0.01,1.23,0,2.04,0.04,2.44
			c0.01,0.17,0.05,0.3,0.1,0.39c0.05,0.09,0.18,0.16,0.36,0.23c0.19,0.07,0.51,0.13,0.96,0.18l-0.02,0.34
			c-0.16-0.01-0.39-0.03-0.69-0.05c-0.3-0.02-0.68-0.04-1.14-0.05H212.46z" stroke="white"/>
		<path d="M223.09,117.87l0.38,0.02c0,0.14,0.12,0.36,0.35,0.67c0.23,0.31,0.55,0.59,0.95,0.84c0.4,0.25,0.83,0.37,1.3,0.37
			c0.34,0,0.68-0.07,1.02-0.22c0.34-0.14,0.51-0.46,0.51-0.94c0-0.51-0.17-0.92-0.52-1.23c-0.36-0.3-0.76-0.57-1.21-0.79l-0.82-0.38
			c-0.48-0.25-0.86-0.51-1.14-0.78c-0.28-0.27-0.42-0.62-0.42-1.04c0-0.33,0.12-0.68,0.36-1.05c0.24-0.37,0.59-0.67,1.04-0.91
			c0.45-0.24,0.97-0.36,1.54-0.36c0.35,0,0.93,0.05,1.74,0.16l0.36,1.85h-0.38c-0.07-0.25-0.22-0.49-0.45-0.72
			c-0.24-0.23-0.51-0.42-0.83-0.58s-0.59-0.24-0.81-0.24c-0.38,0-0.7,0.12-0.94,0.36c-0.24,0.24-0.36,0.54-0.36,0.91
			c0,0.3,0.09,0.53,0.26,0.71c0.17,0.18,0.51,0.39,0.99,0.63l0.66,0.31c0.6,0.28,1.12,0.61,1.54,0.99c0.43,0.38,0.64,0.91,0.64,1.58
			c0,0.25-0.05,0.52-0.16,0.81c-0.1,0.29-0.26,0.49-0.47,0.61c-0.6,0.38-1.1,0.63-1.49,0.74c-0.39,0.11-0.79,0.17-1.2,0.17
			c-0.14,0-0.35-0.02-0.62-0.05c-0.27-0.04-0.46-0.07-0.57-0.09c-0.11-0.02-0.3-0.07-0.57-0.15c-0.27-0.08-0.44-0.13-0.52-0.15
			c0.06-0.29,0.09-0.5,0.09-0.62c0-0.18-0.03-0.43-0.09-0.74C223.21,118.25,223.15,118.02,223.09,117.87z" stroke="white"/>
	</g>
</g>
</svg>
